<?xml version="1.0" encoding="UTF-8" standalone="no"?>
<!DOCTYPE svg PUBLIC "-//W3C//DTD SVG 1.1//EN" "http://www.w3.org/Graphics/SVG/1.1/DTD/svg11.dtd">
<svg width="100%" height="100%" viewBox="0 0 16 16" version="1.1" xmlns="http://www.w3.org/2000/svg" xmlns:xlink="http://www.w3.org/1999/xlink" xml:space="preserve" xmlns:serif="http://www.serif.com/" style="fill-rule:evenodd;clip-rule:evenodd;stroke-linejoin:round;stroke-miterlimit:2;">
    <g transform="matrix(1,0,0,1,-142.17,-131.268)">
        <g transform="matrix(0.383333,0,0,0.383333,87.1977,80.6329)">
            <rect x="143.406" y="132.092" width="15.652" height="15.652" style="fill-opacity:0.5;"/>
        </g>
        <g transform="matrix(0.255556,0,0,0.255556,106.522,98.5114)">
            <rect x="143.406" y="132.092" width="15.652" height="15.652" style="fill:#c4c4c4;"/>
        </g>
        <g transform="matrix(0.127778,0,0,0.127778,125.846,116.39)">
            <rect x="143.406" y="132.092" width="15.652" height="15.652"/>
        </g>
    </g>
    <g transform="matrix(1,0,0,1,-142.17,-121.268)">
        <g transform="matrix(0.383333,0,0,0.383333,87.1977,80.6329)">
            <rect x="143.406" y="132.092" width="15.652" height="15.652" style="fill-opacity:0.5;"/>
        </g>
        <g transform="matrix(0.255556,0,0,0.255556,106.522,98.5114)">
            <rect x="143.406" y="132.092" width="15.652" height="15.652" style="fill:#c4c4c4;"/>
        </g>
        <g transform="matrix(0.127778,0,0,0.127778,125.846,116.39)">
            <rect x="143.406" y="132.092" width="15.652" height="15.652"/>
        </g>
    </g>
    <g transform="matrix(1,0,0,1,-132.17,-131.268)">
        <g transform="matrix(0.383333,0,0,0.383333,87.1977,80.6329)">
            <rect x="143.406" y="132.092" width="15.652" height="15.652" style="fill-opacity:0.5;"/>
        </g>
        <g transform="matrix(0.255556,0,0,0.255556,106.522,98.5114)">
            <rect x="143.406" y="132.092" width="15.652" height="15.652" style="fill:#c4c4c4;"/>
        </g>
        <g transform="matrix(0.127778,0,0,0.127778,125.846,116.39)">
            <rect x="143.406" y="132.092" width="15.652" height="15.652"/>
        </g>
    </g>
    <g transform="matrix(1,0,0,1,-132.17,-121.268)">
        <g transform="matrix(0.383333,0,0,0.383333,87.1977,80.6329)">
            <rect x="143.406" y="132.092" width="15.652" height="15.652" style="fill-opacity:0.5;"/>
        </g>
        <g transform="matrix(0.255556,0,0,0.255556,106.522,98.5114)">
            <rect x="143.406" y="132.092" width="15.652" height="15.652" style="fill:#c4c4c4;"/>
        </g>
        <g transform="matrix(0.127778,0,0,0.127778,125.846,116.39)">
            <rect x="143.406" y="132.092" width="15.652" height="15.652"/>
        </g>
    </g>
    <g transform="matrix(0.746969,0,0,0.638855,-105.285,-85.0051)">
        <rect x="148.983" y="133.059" width="5.355" height="1.565" style="fill-opacity:0.25;"/>
    </g>
    <g transform="matrix(0.746969,0,0,0.638855,-105.285,-72.0051)">
        <rect x="148.983" y="133.059" width="5.355" height="1.565" style="fill-opacity:0.25;"/>
    </g>
    <g transform="matrix(0.746969,0,0,0.638855,-105.285,-84.0051)">
        <rect x="148.983" y="133.059" width="5.355" height="1.565" style="fill:#c4c4c4;"/>
    </g>
    <g transform="matrix(0.746969,0,0,0.638855,-105.285,-71.0051)">
        <rect x="148.983" y="133.059" width="5.355" height="1.565" style="fill:#c4c4c4;"/>
    </g>
    <g transform="matrix(0.186742,0,0,2.55542,-13.7874,-334.021)">
        <rect x="148.983" y="133.059" width="5.355" height="1.565" style="fill:#c4c4c4;"/>
    </g>
    <g transform="matrix(0.186742,0,0,2.55542,-26.8213,-334.021)">
        <rect x="148.983" y="133.059" width="5.355" height="1.565" style="fill:#c4c4c4;"/>
    </g>
    <g transform="matrix(0.746969,0,0,0.638855,-105.285,-83.0051)">
        <rect x="148.983" y="133.059" width="5.355" height="1.565" style="fill-opacity:0.25;"/>
    </g>
    <g transform="matrix(0.746969,0,0,0.638855,-105.285,-70.0051)">
        <rect x="148.983" y="133.059" width="5.355" height="1.565" style="fill-opacity:0.25;"/>
    </g>
</svg>
